<svg width="166" height="42" viewBox="0 0 166 42" fill="none" xmlns="http://www.w3.org/2000/svg">
<path d="M6.36412 18.842H18.9441V20.984H6.36412V18.842ZM6.63612 29.824H20.9501V32H4.12012V8.19997H20.4401V10.376H6.63612V29.824Z" fill="white"/>
<path d="M35.4663 13.98C36.9169 13.98 38.1863 14.2633 39.2743 14.83C40.3849 15.374 41.2463 16.2126 41.8583 17.346C42.4929 18.4793 42.8103 19.9073 42.8103 21.63V32H40.3963V21.868C40.3963 19.9866 39.9203 18.57 38.9683 17.618C38.0389 16.6433 36.7243 16.156 35.0243 16.156C33.7549 16.156 32.6443 16.4166 31.6923 16.938C30.7629 17.4366 30.0376 18.1733 29.5163 19.148C29.0176 20.1 28.7683 21.256 28.7683 22.616V32H26.3543V14.15H28.6663V19.046L28.2923 18.128C28.8589 16.836 29.7656 15.8273 31.0123 15.102C32.2589 14.354 33.7436 13.98 35.4663 13.98Z" fill="white"/>
<path d="M56.9128 32.17C55.0542 32.17 53.4222 31.7846 52.0168 31.014C50.6115 30.2206 49.5122 29.144 48.7188 27.784C47.9255 26.4013 47.5288 24.826 47.5288 23.058C47.5288 21.29 47.9028 19.726 48.6508 18.366C49.4215 17.006 50.4642 15.9406 51.7788 15.17C53.1162 14.3766 54.6122 13.98 56.2668 13.98C57.9442 13.98 59.4288 14.3653 60.7208 15.136C62.0355 15.884 63.0668 16.9493 63.8148 18.332C64.5628 19.692 64.9368 21.2673 64.9368 23.058C64.9368 23.1713 64.9255 23.296 64.9028 23.432C64.9028 23.5453 64.9028 23.67 64.9028 23.806H49.3648V22.004H63.6108L62.6588 22.718C62.6588 21.426 62.3755 20.2813 61.8088 19.284C61.2648 18.264 60.5168 17.4706 59.5648 16.904C58.6128 16.3373 57.5135 16.054 56.2668 16.054C55.0428 16.054 53.9435 16.3373 52.9688 16.904C51.9942 17.4706 51.2348 18.264 50.6908 19.284C50.1468 20.304 49.8748 21.4713 49.8748 22.786V23.16C49.8748 24.52 50.1695 25.7213 50.7588 26.764C51.3708 27.784 52.2095 28.5886 53.2748 29.178C54.3628 29.7446 55.5982 30.028 56.9808 30.028C58.0688 30.028 59.0775 29.8353 60.0068 29.45C60.9588 29.0646 61.7748 28.4753 62.4548 27.682L63.8148 29.246C63.0215 30.198 62.0242 30.9233 60.8228 31.422C59.6442 31.9206 58.3408 32.17 56.9128 32.17Z" fill="white"/>
<path d="M69.8503 32V14.15H72.1624V19.012L71.9244 18.162C72.423 16.802 73.2617 15.7706 74.4404 15.068C75.619 14.3426 77.081 13.98 78.8264 13.98V16.326C78.7357 16.326 78.645 16.326 78.5544 16.326C78.4637 16.3033 78.373 16.292 78.2823 16.292C76.401 16.292 74.9277 16.87 73.8624 18.026C72.797 19.1593 72.2644 20.78 72.2644 22.888V32H69.8503Z" fill="white"/>
<path d="M90.6812 38.766C89.0492 38.766 87.4852 38.528 85.9892 38.052C84.4932 37.576 83.2805 36.896 82.3512 36.012L83.5752 34.176C84.4139 34.924 85.4452 35.5133 86.6692 35.944C87.9159 36.3973 89.2305 36.624 90.6132 36.624C92.8799 36.624 94.5459 36.0913 95.6112 35.026C96.6765 33.9833 97.2092 32.3513 97.2092 30.13V25.676L97.5492 22.616L97.3112 19.556V14.15H99.6232V29.824C99.6232 32.9066 98.8639 35.162 97.3452 36.59C95.8492 38.0406 93.6279 38.766 90.6812 38.766ZM90.2392 31.32C88.5392 31.32 87.0092 30.9573 85.6492 30.232C84.2892 29.484 83.2125 28.4526 82.4192 27.138C81.6485 25.8233 81.2632 24.316 81.2632 22.616C81.2632 20.916 81.6485 19.42 82.4192 18.128C83.2125 16.8133 84.2892 15.7933 85.6492 15.068C87.0092 14.3426 88.5392 13.98 90.2392 13.98C91.8259 13.98 93.2539 14.3086 94.5232 14.966C95.7925 15.6233 96.8012 16.598 97.5492 17.89C98.2972 19.182 98.6712 20.7573 98.6712 22.616C98.6712 24.4746 98.2972 26.05 97.5492 27.342C96.8012 28.634 95.7925 29.62 94.5232 30.3C93.2539 30.98 91.8259 31.32 90.2392 31.32ZM90.4772 29.178C91.7919 29.178 92.9592 28.906 93.9792 28.362C94.9992 27.7953 95.8039 27.0246 96.3932 26.05C96.9825 25.0526 97.2772 23.908 97.2772 22.616C97.2772 21.324 96.9825 20.1906 96.3932 19.216C95.8039 18.2413 94.9992 17.482 93.9792 16.938C92.9592 16.3713 91.7919 16.088 90.4772 16.088C89.1852 16.088 88.0179 16.3713 86.9752 16.938C85.9552 17.482 85.1505 18.2413 84.5612 19.216C83.9945 20.1906 83.7112 21.324 83.7112 22.616C83.7112 23.908 83.9945 25.0526 84.5612 26.05C85.1505 27.0246 85.9552 27.7953 86.9752 28.362C88.0179 28.906 89.1852 29.178 90.4772 29.178Z" fill="white"/>
<path d="M113.923 32.17C112.064 32.17 110.432 31.7846 109.027 31.014C107.621 30.2206 106.522 29.144 105.729 27.784C104.935 26.4013 104.539 24.826 104.539 23.058C104.539 21.29 104.913 19.726 105.661 18.366C106.431 17.006 107.474 15.9406 108.789 15.17C110.126 14.3766 111.622 13.98 113.277 13.98C114.954 13.98 116.439 14.3653 117.731 15.136C119.045 15.884 120.077 16.9493 120.825 18.332C121.573 19.692 121.947 21.2673 121.947 23.058C121.947 23.1713 121.935 23.296 121.913 23.432C121.913 23.5453 121.913 23.67 121.913 23.806H106.375V22.004H120.621L119.669 22.718C119.669 21.426 119.385 20.2813 118.819 19.284C118.275 18.264 117.527 17.4706 116.575 16.904C115.623 16.3373 114.523 16.054 113.277 16.054C112.053 16.054 110.953 16.3373 109.979 16.904C109.004 17.4706 108.245 18.264 107.701 19.284C107.157 20.304 106.885 21.4713 106.885 22.786V23.16C106.885 24.52 107.179 25.7213 107.769 26.764C108.381 27.784 109.219 28.5886 110.285 29.178C111.373 29.7446 112.608 30.028 113.991 30.028C115.079 30.028 116.087 29.8353 117.017 29.45C117.969 29.0646 118.785 28.4753 119.465 27.682L120.825 29.246C120.031 30.198 119.034 30.9233 117.833 31.422C116.654 31.9206 115.351 32.17 113.923 32.17Z" fill="white"/>
<path d="M132.504 32.17C130.827 32.17 129.535 31.7166 128.628 30.81C127.721 29.9033 127.268 28.6226 127.268 26.968V10.206H129.682V26.832C129.682 27.8746 129.943 28.6793 130.464 29.246C131.008 29.8126 131.779 30.096 132.776 30.096C133.841 30.096 134.725 29.79 135.428 29.178L136.278 30.912C135.802 31.3426 135.224 31.66 134.544 31.864C133.887 32.068 133.207 32.17 132.504 32.17ZM124.072 16.156V14.15H135.122V16.156H124.072Z" fill="white"/>
<path d="M140.673 32V14.15H143.087V32H140.673ZM141.897 10.206C141.398 10.206 140.979 10.036 140.639 9.69597C140.299 9.35597 140.129 8.94797 140.129 8.47197C140.129 7.99597 140.299 7.59931 140.639 7.28197C140.979 6.94197 141.398 6.77197 141.897 6.77197C142.395 6.77197 142.815 6.93064 143.155 7.24797C143.495 7.56531 143.665 7.96197 143.665 8.43797C143.665 8.93664 143.495 9.35597 143.155 9.69597C142.837 10.036 142.418 10.206 141.897 10.206Z" fill="white"/>
<path d="M157.215 32.17C155.447 32.17 153.861 31.7846 152.455 31.014C151.073 30.2206 149.985 29.144 149.191 27.784C148.398 26.4013 148.001 24.826 148.001 23.058C148.001 21.2673 148.398 19.692 149.191 18.332C149.985 16.972 151.073 15.9066 152.455 15.136C153.861 14.3653 155.447 13.98 157.215 13.98C158.734 13.98 160.105 14.2746 161.329 14.864C162.553 15.4533 163.517 16.3373 164.219 17.516L162.417 18.74C161.805 17.8333 161.046 17.1646 160.139 16.734C159.233 16.3033 158.247 16.088 157.181 16.088C155.912 16.088 154.767 16.3826 153.747 16.972C152.727 17.5386 151.923 18.3433 151.333 19.386C150.744 20.4286 150.449 21.6526 150.449 23.058C150.449 24.4633 150.744 25.6873 151.333 26.73C151.923 27.7726 152.727 28.5886 153.747 29.178C154.767 29.7446 155.912 30.028 157.181 30.028C158.247 30.028 159.233 29.8126 160.139 29.382C161.046 28.9513 161.805 28.294 162.417 27.41L164.219 28.634C163.517 29.79 162.553 30.674 161.329 31.286C160.105 31.8753 158.734 32.17 157.215 32.17Z" fill="white"/>
</svg>
