<?xml version="1.0" encoding="utf-8"?>
<!-- Generator: Adobe Illustrator 22.0.1, SVG Export Plug-In . SVG Version: 6.00 Build 0)  -->
<svg version="1.1" id="Layer_1" xmlns="http://www.w3.org/2000/svg" xmlns:xlink="http://www.w3.org/1999/xlink" x="0px" y="0px"
	 viewBox="0 0 50 50" style="enable-background:new 0 0 50 50;" xml:space="preserve">
<style type="text/css">
	.st0{opacity:0.1;fill:#0C38F7;}
	.st1{fill:#999999;}
</style>
<g>
	<g>
		<polygon class="st0" points="40.4,34.8 9.1,34.8 9.1,15.5 1.4,15.5 1.4,43 40.4,43 		"/>
		<rect x="37.1" y="17.1" class="st0" width="7.7" height="12.6"/>
		<g>
			<path class="st1" d="M50,35.5H8.7V6H50V35.5z M10.6,33.6h37.4V7.9H10.6V33.6z"/>
		</g>
		<g>
			<polygon class="st1" points="41.3,44 0,44 0,14.5 6.6,14.5 6.6,16.4 1.9,16.4 1.9,42.1 39.4,42.1 39.4,37.5 41.3,37.5 			"/>
		</g>
		<g>
			<path class="st1" d="M45.7,15H13v-4.3h32.7V15z M14.9,13.1h28.8v-0.4H14.9V13.1z"/>
		</g>
	</g>
	<g>
		<g>
			<path class="st1" d="M34,31.2H13.2V16.6H34V31.2z M15.1,29.2h17V18.6h-17V29.2z"/>
		</g>
		<g>
			<path class="st1" d="M45.7,31.2h-9.8V16.6h9.8V31.2z M37.8,29.2h5.9V18.6h-5.9V29.2z"/>
		</g>
	</g>
</g>
</svg>
